<?xml version="1.0" standalone="no"?>
<!DOCTYPE svg PUBLIC "-//W3C//DTD SVG 20010904//EN"
 "http://www.w3.org/TR/2001/REC-SVG-20010904/DTD/svg10.dtd">
<svg version="1.0" xmlns="http://www.w3.org/2000/svg"
 width="256.000000pt" height="250.000000pt" viewBox="0 0 256.000000 250.000000"
 preserveAspectRatio="xMidYMid meet">

<g transform="translate(0.000000,250.000000) scale(0.100000,-0.100000)"
fill="#000000" stroke="none">
<path d="M0 2075 l2 -425 22 6 c15 3 30 -3 49 -20 16 -14 29 -26 31 -26 1 0 0
17 -2 38 l-3 37 20 -24 c12 -13 21 -29 21 -37 0 -8 4 -14 9 -14 5 0 5 16 1 38
l-9 37 21 -25 21 -25 -5 40 -5 40 127 0 127 0 -14 -22 c-8 -12 -13 -26 -10
-30 3 -4 -6 -9 -19 -9 -14 -1 -24 4 -24 11 0 7 -7 18 -15 25 -12 10 -18 9 -31
-5 -9 -9 -26 -15 -38 -14 -44 3 -54 -1 -49 -19 2 -10 0 -29 -6 -44 -13 -36
-68 -44 -149 -24 -33 9 -63 16 -66 16 -3 0 -6 -360 -6 -800 l0 -800 1280 0
1281 0 -4 828 c-1 455 -7 838 -12 851 -6 17 -5 22 3 17 9 -5 12 10 12 52 0 55
-2 60 -20 55 -15 -4 -20 0 -20 13 0 11 -3 36 -6 57 -4 21 -3 37 2 36 45 -8 44
-18 44 296 l0 295 -1280 0 -1281 0 1 -425z m1317 209 l50 -117 -101 -50 c-55
-28 -103 -51 -106 -51 -3 -1 -15 -11 -27 -23 -26 -26 -39 -29 -46 -10 -4 10
-7 10 -18 0 -11 -11 -11 -13 1 -13 25 0 -23 -41 -75 -65 -49 -21 -118 -73
-200 -148 -22 -20 -46 -35 -53 -32 -17 6 -311 249 -307 253 2 2 40 -8 84 -22
59 -19 93 -24 125 -20 l43 6 7 -36 c4 -20 9 -36 12 -36 3 0 30 21 59 46 54 46
68 71 80 150 l6 41 52 -18 c29 -10 66 -18 83 -19 49 0 174 31 174 44 -1 15 94
236 101 236 3 0 28 -52 56 -116z m91 -172 c-46 -51 -79 -140 -85 -227 -5 -77
-19 -125 -37 -125 -6 0 16 -13 49 -29 56 -28 58 -30 28 -30 -51 -1 -183 -47
-251 -88 -35 -20 -87 -63 -117 -94 -30 -31 -57 -54 -60 -51 -3 3 -5 -1 -5 -8
0 -7 -3 -11 -6 -8 -10 11 28 72 75 121 l46 48 -40 -17 c-55 -23 -123 -70 -170
-118 -21 -23 -33 -33 -26 -24 7 10 11 26 9 36 -3 10 -2 45 3 78 5 34 4 63 -1
68 -5 5 -5 18 1 30 8 17 6 16 -11 -4 -11 -14 -41 -65 -65 -115 -47 -95 -59
-101 -24 -13 82 210 359 463 638 585 42 17 77 30 80 28 2 -3 -12 -22 -31 -43z
m252 18 c-15 -27 -50 -40 -110 -40 -33 0 -50 5 -54 15 -4 12 4 15 37 16 23 0
58 6 77 13 53 21 63 20 50 -4z m190 -50 c0 -5 -6 -10 -14 -10 -7 0 -24 -10
-38 -22 -14 -13 -35 -31 -48 -41 l-22 -18 39 -33 c21 -19 43 -31 50 -29 7 3
10 9 7 14 -3 5 -2 19 1 30 6 18 12 20 45 15 26 -4 65 2 121 18 79 23 113 25
79 6 -18 -10 -117 -89 -223 -177 -42 -35 -78 -63 -81 -63 -3 0 -40 32 -83 71
-49 45 -105 83 -153 107 -41 20 -76 37 -78 38 -5 3 21 54 28 54 34 0 165 -78
229 -135 34 -31 43 -35 61 -25 27 14 25 19 -32 68 -26 22 -44 43 -41 46 4 3 1
6 -5 6 -7 0 -12 8 -12 17 0 14 4 13 24 -6 19 -18 25 -19 29 -8 3 8 0 20 -6 26
-8 8 -7 11 3 11 7 0 21 6 29 14 14 12 64 33 84 35 4 1 7 -3 7 -9z m-1060 -30
c0 -11 -4 -20 -10 -20 -5 0 -10 4 -10 10 0 5 -15 14 -32 19 l-33 9 43 1 c36 1
42 -2 42 -19z m1034 -36 c3 -8 2 -12 -4 -9 -6 3 -10 10 -10 16 0 14 7 11 14
-7z m-1344 -81 c11 -30 18 -58 15 -61 -3 -3 -5 0 -5 6 0 16 -67 15 -84 0 -11
-11 -9 -17 12 -34 35 -31 24 -54 -26 -54 -35 0 -41 3 -56 38 -10 21 -30 46
-45 55 -14 8 -35 26 -46 38 -11 12 -14 19 -7 15 21 -12 196 -10 200 3 2 6 9 8
15 4 7 -4 8 0 4 10 -4 10 -10 24 -14 34 -4 10 -3 14 5 9 6 -3 20 -32 32 -63z
m1586 32 c-8 -23 26 -35 101 -36 37 0 87 -4 111 -7 l43 -7 -60 -33 c-36 -20
-62 -29 -66 -22 -3 5 -15 10 -26 10 -11 0 -34 8 -52 17 -18 9 -44 19 -59 22
-27 6 -27 6 -11 39 16 32 30 45 19 17z m-1569 -193 c-22 -39 -35 -52 -52 -52
-5 0 -3 5 5 10 12 7 12 12 2 22 -18 18 -15 25 12 32 18 4 23 11 19 26 -3 11 0
20 6 20 6 0 11 8 12 18 0 9 4 5 9 -11 7 -22 4 -37 -13 -65z m1051 50 l22 -15
-42 -38 -42 -39 -39 41 c-21 22 -37 42 -36 44 2 1 19 12 38 23 36 22 42 21 99
-16z m534 4 c39 -7 41 -8 24 -21 -21 -16 -14 -35 12 -28 13 3 23 -8 41 -44 13
-26 26 -43 28 -36 2 6 -5 28 -16 49 -27 50 -27 64 0 30 22 -28 78 -152 79
-173 0 -7 -7 -13 -15 -13 -8 0 -15 4 -15 10 0 5 -14 7 -32 3 -29 -6 -32 -5
-20 9 9 11 10 18 2 23 -5 3 -10 15 -10 25 0 10 -13 30 -30 43 -16 14 -30 31
-30 37 0 7 -7 10 -15 6 -8 -3 -15 -2 -15 2 0 4 -9 18 -20 32 l-19 25 -28 -25
c-15 -14 -22 -18 -17 -10 6 8 14 32 18 53 6 32 9 35 21 24 7 -8 33 -17 57 -21z
m-428 -97 c-3 -5 -16 -8 -30 -7 -22 2 -23 4 -9 15 18 12 48 7 39 -8z m-1119
-46 c-8 -21 -28 -85 -44 -141 l-28 -102 22 -6 c56 -14 68 -4 85 76 9 41 23 91
32 111 13 30 20 35 47 35 25 0 30 -3 25 -15 -12 -29 -54 -162 -54 -171 0 -6 7
-10 15 -10 22 0 20 -5 -35 -62 l-51 -53 -152 -2 c-84 -2 -160 -5 -169 -7 -33
-8 -18 3 61 44 43 22 87 47 97 55 18 13 16 14 -21 15 -30 0 -36 3 -25 10 8 5
26 10 40 10 14 0 36 7 48 16 15 11 22 12 22 3 0 -25 11 1 31 72 22 78 59 172
66 166 2 -3 -3 -22 -12 -44z m1495 -79 c0 -12 37 -34 65 -38 20 -3 60 -100 50
-124 -6 -15 51 -42 92 -43 24 0 25 -1 8 -8 -18 -7 -15 -10 20 -29 l40 -21
-145 0 c-189 1 -200 3 -229 44 -31 46 -21 58 39 50 61 -8 91 0 84 23 -4 12 -3
13 3 4 5 -7 17 -10 26 -6 10 3 24 1 32 -6 9 -7 18 -10 22 -6 12 12 -21 35 -56
38 -33 4 -34 6 -61 94 -15 49 -32 102 -39 117 -6 16 -11 31 -10 35 1 10 58
-110 59 -124z m-1339 73 c-10 -9 -11 -8 -5 6 3 10 9 15 12 12 3 -3 0 -11 -7
-18z m-354 -13 c-3 -3 -12 -4 -19 -1 -8 3 -5 6 6 6 11 1 17 -2 13 -5z m1347
-14 c67 -12 137 -25 156 -29 19 -5 47 -12 63 -15 l27 -6 -21 -42 c-36 -71 -71
-118 -82 -111 -5 3 -7 1 -3 -5 3 -6 -6 -23 -20 -39 -15 -15 -22 -21 -16 -13
14 20 -10 51 -58 76 -51 27 -288 27 -375 0 l-60 -19 40 -19 c22 -10 50 -17 63
-14 12 2 22 -1 22 -7 0 -5 9 -7 20 -4 11 3 20 1 20 -5 0 -6 11 -7 25 -4 15 4
25 2 25 -4 0 -7 8 -9 19 -5 11 3 22 2 24 -3 3 -4 18 -8 34 -7 15 0 34 -6 40
-15 11 -13 14 -13 22 -1 7 11 10 9 16 -8 5 -16 12 -20 26 -16 15 5 17 3 12
-11 -5 -14 -3 -16 12 -10 11 4 16 4 12 0 -4 -4 -2 -13 4 -20 8 -10 4 -27 -19
-66 -17 -29 -35 -52 -41 -51 -6 2 -8 -3 -5 -11 3 -7 -3 -19 -13 -27 -17 -13
-17 -13 -3 5 10 13 3 11 -25 -8 -21 -15 -45 -24 -52 -22 -7 3 -13 0 -13 -7 -1
-7 -11 10 -24 37 l-23 49 -11 -44 c-6 -24 -22 -61 -35 -83 -22 -35 -28 -38
-73 -42 -27 -2 -53 -4 -59 -4 -5 -1 -20 0 -32 1 -21 3 -21 3 -2 30 11 15 34
58 51 96 33 69 41 137 25 196 -7 27 -27 38 -27 15 0 -7 -7 -22 -15 -32 -12
-16 -19 -17 -37 -9 -22 10 -23 8 -23 -33 0 -37 -6 -49 -42 -86 -24 -24 -57
-52 -75 -62 l-32 -19 22 30 c29 41 28 43 -10 32 -18 -5 -55 -9 -83 -8 -42 0
-46 2 -26 10 37 15 80 48 92 72 11 21 11 21 -7 6 -10 -9 -41 -29 -67 -44 -40
-23 -56 -27 -92 -22 -76 11 -188 77 -214 126 -9 15 -4 16 54 13 86 -6 139 20
288 141 112 90 210 151 294 182 55 20 169 18 307 -5z m497 -122 c-13 -36 -28
-31 -39 11 l-10 40 29 -14 c23 -13 27 -19 20 -37z m113 -27 c31 -34 3 -24 -30
10 -21 23 -23 29 -9 21 11 -5 29 -20 39 -31z m236 4 c0 -8 -8 -15 -17 -14 -13
0 -14 2 -4 6 11 5 11 7 0 14 -11 7 -10 9 4 9 9 0 17 -7 17 -15z m-1046 -49
c-5 -13 -9 -14 -21 -4 -13 10 -13 13 4 19 23 8 25 6 17 -15z m74 13 c-2 -6 -8
-10 -13 -10 -5 0 -11 4 -13 10 -2 6 4 11 13 11 9 0 15 -5 13 -11z m80 2 c10
-6 10 -10 -2 -20 -12 -10 -17 -8 -26 8 -12 23 2 29 28 12z m-238 -21 c0 -5 -4
-10 -10 -10 -5 0 -10 5 -10 10 0 6 5 10 10 10 6 0 10 -4 10 -10z m315 -9 c0
-23 -22 -24 -28 -1 -4 16 -1 20 11 18 9 -2 17 -10 17 -17z m47 -53 c-9 -9 -12
-7 -12 12 0 19 3 21 12 12 9 -9 9 -15 0 -24z m-1642 -52 c0 -2 -9 -2 -20 1
-11 3 -20 9 -20 15 0 5 9 4 20 -2 11 -6 20 -12 20 -14z m1786 -51 c-11 -8 -25
-15 -30 -15 -6 0 -2 7 8 15 11 8 25 15 30 15 6 0 2 -7 -8 -15z m-1702 -93 c19
-27 19 -27 -12 2 -35 32 -38 38 -19 30 6 -3 21 -17 31 -32z m1916 23 c0 -9 -9
-15 -22 -15 -21 0 -21 0 -2 15 24 18 24 18 24 0z m-1787 -2 c-7 -2 -21 -2 -30
0 -10 3 -4 5 12 5 17 0 24 -2 18 -5z m-112 -105 c11 -21 11 -22 -4 -9 -10 7
-17 17 -17 22 0 15 9 10 21 -13z m1836 -3 c0 -11 -4 -12 -14 -4 -7 6 -13 13
-13 15 0 2 6 4 13 4 8 0 14 -7 14 -15z m381 -15 c-7 -11 -17 -20 -22 -20 -5 0
-1 9 9 20 10 11 20 20 22 20 2 0 -2 -9 -9 -20z m-558 -23 c0 -1 -9 -10 -20
-20 -16 -13 -20 -14 -20 -3 0 8 8 17 18 19 9 3 18 5 20 6 1 0 2 0 2 -2z
m-1269 -41 c-11 -13 -51 -29 -51 -20 0 3 51 33 59 34 2 0 -2 -6 -8 -14z m1694
6 c-6 -4 -26 -21 -45 -37 l-35 -30 34 38 c19 20 39 37 45 37 6 0 6 -3 1 -8z
m-350 -23 c5 -5 -5 -4 -23 2 -17 6 -32 13 -32 16 0 7 43 -8 55 -18z m-1271 -5
c3 -8 2 -12 -4 -9 -6 3 -10 10 -10 16 0 14 7 11 14 -7z m1697 -7 c-10 -9 -11
-8 -5 6 3 10 9 15 12 12 3 -3 0 -11 -7 -18z m-1466 3 c3 -5 -25 -34 -61 -64
l-67 -56 -33 38 c-17 20 -31 37 -31 38 1 1 17 4 36 8 29 5 32 4 21 -9 -11 -13
-8 -15 13 -15 25 0 57 23 57 41 0 5 3 8 8 8 22 -4 42 2 37 11 -3 6 -2 10 4 10
5 0 12 -4 16 -10z m911 -18 c-17 -16 -18 -16 -5 5 7 12 15 20 18 17 3 -2 -3
-12 -13 -22z m-150 -25 c11 -11 42 -8 46 4 4 12 68 3 68 -9 0 -4 -14 -22 -31
-40 l-30 -33 -49 41 c-28 23 -50 43 -50 44 0 6 40 -1 46 -7z m644 -25 c0 -5
-65 -26 -145 -47 -134 -35 -150 -37 -208 -28 l-62 11 75 0 c55 0 110 9 205 35
72 20 131 36 133 36 1 1 2 -3 2 -7z m-1943 -36 c88 -21 156 -32 188 -30 l50 3
-56 -11 c-51 -9 -70 -6 -200 26 -79 20 -145 39 -148 41 -11 11 37 3 166 -29z
m1023 21 c0 -2 -10 -12 -22 -23 l-23 -19 19 23 c18 21 26 27 26 19z m-1007
-88 c45 -12 120 -24 167 -28 l85 -6 3 -62 3 -61 -51 19 c-128 48 -220 -8 -220
-134 0 -65 31 -100 87 -99 49 1 71 11 125 60 l41 37 -7 -55 c-12 -92 -16 -99
-78 -143 -34 -23 -66 -46 -72 -50 -19 -15 -163 60 -194 101 -23 30 -27 45 -27
96 1 88 39 202 76 223 29 17 29 17 8 29 -27 14 -67 109 -43 100 9 -3 52 -16
97 -27z m1841 -16 c-8 -27 -12 -62 -9 -80 l6 -32 -28 14 c-33 17 -71 19 -107
5 -51 -19 -23 -69 49 -86 63 -14 103 -45 124 -95 25 -57 25 -58 5 -108 -12
-29 -30 -49 -67 -72 -29 -17 -65 -41 -81 -52 -23 -16 -30 -17 -37 -6 -5 8 -9
20 -9 27 0 17 -20 15 -27 -4 -8 -20 -23 16 -51 118 -12 40 -24 82 -28 93 -5
13 8 6 39 -22 49 -45 83 -59 121 -49 62 15 32 61 -72 111 -61 30 -76 41 -89
72 -19 48 -5 103 36 132 22 16 194 75 233 80 3 1 0 -20 -8 -46z m-954 3 c0 -2
-8 -10 -17 -17 -16 -13 -17 -12 -4 4 13 16 21 21 21 13z m-500 -42 c-6 -14
-10 -50 -10 -80 l0 -55 63 3 62 3 0 78 0 77 58 0 c52 0 57 -2 48 -17 -9 -18
-35 -362 -28 -369 2 -3 22 36 43 86 35 81 44 94 79 112 22 11 61 36 87 55 43
31 68 36 68 13 0 -21 103 -250 113 -250 13 0 1 323 -13 351 -10 18 -7 19 99
19 127 0 154 -8 176 -49 25 -49 20 -105 -14 -143 l-28 -33 53 -84 c62 -98 60
-105 43 118 -7 92 -16 154 -25 169 -14 22 -14 22 51 22 59 0 65 -2 58 -17 -5
-10 -6 -43 -3 -73 l5 -55 38 62 c21 35 36 67 32 73 -4 6 18 10 59 10 l66 0
-56 -85 -55 -85 59 -97 c114 -191 139 -240 108 -214 -8 7 -36 18 -62 24 -47
12 -49 14 -104 110 -31 53 -61 102 -66 107 -11 11 -8 -89 6 -152 l8 -36 -37 5
c-20 2 -45 9 -56 14 -11 5 -42 10 -69 11 l-49 3 -59 93 c-58 91 -58 93 -41
116 10 13 27 27 38 32 22 10 30 41 16 62 -4 8 -27 16 -50 19 l-41 6 1 -74 c0
-41 4 -113 7 -161 6 -77 5 -87 -9 -83 -8 3 -56 6 -106 7 l-91 2 -16 34 c-16
32 -18 33 -69 30 -48 -3 -53 -5 -69 -38 -18 -34 -19 -35 -110 -47 -51 -6 -98
-12 -104 -12 -7 -1 -8 14 -3 47 4 26 8 62 8 80 l1 32 -64 0 -63 0 -7 -37 c-3
-21 -6 -62 -6 -91 0 -57 0 -57 -66 -66 l-42 -6 8 38 c14 62 32 295 29 355 l-4
57 57 0 58 0 -10 -26z m460 13 c0 -2 -10 -12 -22 -23 l-23 -19 19 23 c18 21
26 27 26 19z m-72 -60 c-29 -24 -98 -66 -86 -52 10 11 102 74 108 74 3 0 -7
-10 -22 -22z m-918 8 c0 -2 -10 -9 -22 -15 -22 -11 -22 -10 -4 4 21 17 26 19
26 11z m928 -437 c-3 -47 -6 -54 -31 -62 -41 -15 -61 2 -67 58 -5 40 -3 46 12
46 14 0 18 -8 18 -40 0 -33 3 -40 20 -40 17 0 20 7 20 45 0 34 4 45 16 45 12
0 14 -10 12 -52z m128 -3 c0 -44 -3 -55 -16 -55 -13 0 -16 11 -16 55 1 42 5
55 16 55 11 0 15 -13 16 -55z m114 11 c0 -40 2 -44 33 -53 26 -8 29 -12 14
-18 -9 -4 -32 -4 -50 -1 l-32 6 3 55 c3 39 8 55 18 55 10 0 14 -13 14 -44z
m208 -13 c16 -17 21 -32 16 -46 -12 -40 -26 -49 -67 -44 -21 3 -40 7 -41 9 -1
1 0 29 2 61 l4 58 31 -6 c18 -4 42 -18 55 -32z m-634 21 c24 -9 9 -24 -24 -24
-20 0 -31 -6 -35 -20 -7 -23 10 -50 31 -50 17 0 18 17 2 23 -10 3 -10 8 -2 17
18 19 47 8 49 -18 3 -40 -62 -57 -97 -25 -49 44 11 122 76 97z"/>
<path d="M1080 2108 c-45 -11 -98 -18 -134 -16 l-59 3 -14 -47 c-7 -27 -19
-48 -26 -48 -7 0 -37 -23 -66 -51 -43 -41 -50 -53 -40 -65 18 -22 26 -18 87
37 66 58 187 122 267 140 45 10 57 17 61 36 4 13 5 26 3 27 -2 2 -38 -5 -79
-16z"/>
<path d="M1016 2005 c4 -8 8 -15 10 -15 2 0 4 7 4 15 0 8 -4 15 -10 15 -5 0
-7 -7 -4 -15z"/>
<path d="M960 1990 c-12 -7 -12 -12 -2 -22 9 -9 12 -9 12 0 0 6 8 9 18 6 10
-4 13 -2 7 3 -5 4 -12 11 -15 15 -3 4 -12 3 -20 -2z"/>
<path d="M905 1956 c-16 -12 -16 -13 -1 -19 9 -4 16 -2 16 4 0 6 5 7 10 4 6
-3 10 -2 10 4 0 17 -16 21 -35 7z"/>
<path d="M846 1915 c-4 -12 -1 -16 11 -13 18 3 21 20 5 26 -5 1 -12 -4 -16
-13z"/>
<path d="M1477 2005 c-9 -23 11 -28 23 -5 8 16 8 20 -4 20 -7 0 -16 -7 -19
-15z"/>
<path d="M1527 1986 c-3 -8 2 -16 13 -19 23 -6 35 19 14 27 -21 8 -21 8 -27
-8z"/>
<path d="M1586 1954 c-9 -24 -7 -28 9 -14 17 14 20 30 6 30 -5 0 -12 -7 -15
-16z"/>
<path d="M1625 1933 c-8 -23 13 -42 25 -23 13 21 12 27 -4 33 -8 3 -17 -1 -21
-10z"/>
<path d="M617 1625 c-8 -18 11 -31 25 -17 11 11 3 32 -12 32 -4 0 -10 -7 -13
-15z"/>
<path d="M600 1575 c0 -8 9 -15 20 -15 11 0 20 7 20 15 0 8 -9 15 -20 15 -11
0 -20 -7 -20 -15z"/>
<path d="M586 1542 c-3 -5 0 -15 8 -21 10 -8 16 -8 25 3 8 10 9 16 1 21 -5 3
-10 0 -10 -7 0 -10 -2 -10 -9 1 -5 8 -11 9 -15 3z"/>
<path d="M570 1458 c0 -4 9 -8 20 -8 11 0 20 4 20 9 0 6 -9 9 -20 8 -11 -1
-20 -5 -20 -9z"/>
<path d="M1388 1620 l-33 -29 27 -1 c15 0 30 -4 33 -10 9 -14 49 -12 82 4 15
8 37 18 48 21 16 5 8 11 -35 25 -74 26 -84 25 -122 -10z m92 -20 c0 -5 -9 -10
-20 -10 -11 0 -20 5 -20 10 0 6 9 10 20 10 11 0 20 -4 20 -10z"/>
<path d="M1160 616 c-13 -36 -13 -36 10 -36 17 0 19 4 14 28 -9 38 -12 39 -24
8z"/>
<path d="M1570 265 c0 -28 4 -35 19 -35 15 0 31 18 31 35 0 8 -32 35 -41 35
-5 0 -9 -16 -9 -35z"/>
</g>
</svg>
